<svg xmlns="http://www.w3.org/2000/svg" width="58" height="58" shape-rendering="geometricPrecision" text-rendering="geometricPrecision" image-rendering="optimizeQuality" fill-rule="evenodd" clip-rule="evenodd"><path fill="#96beeb" d="M.239.328H57.76v57.521H.239z"/><path d="M27.538 13.464c.749 0 1.399.316 1.966.949.558.634.842 1.542.842 2.709 0 1.242-.192 2.917-.567 5.025-.375 2.117-.617 3.658-.733 4.617a203.303 203.303 0 00-.45 4.475c-.117 1.408-.209 2.5-.258 3.266a31.198 31.198 0 01-.092 1.359c-.067.666-.3 1-.708 1-.25 0-.417-.059-.5-.167-.092-.117-.15-.283-.184-.492-.017-.208-.066-.85-.133-1.916a278.75 278.75 0 00-.284-3.7c-.116-1.334-.225-2.609-.341-3.825-.117-1.192-.35-2.767-.708-4.734-.359-1.983-.542-3.625-.542-4.908 0-1.217.283-2.133.85-2.742.558-.608 1.175-.916 1.842-.916zM24.754 44.18v-.2c.242-.666.567-1.216.958-1.641.4-.425.975-.784 1.726-1.075h.216c.733.275 1.309.625 1.725 1.041.417.417.734.975.967 1.675v.2c-.267.792-.6 1.4-1 1.8-.409.409-.975.7-1.692.884h-.216c-.784-.184-1.367-.467-1.767-.859-.4-.383-.708-1-.917-1.825z" fill="#537dad" fill-rule="nonzero"/></svg>