<svg id="logo" version="1.1" viewBox="0 0 56.03 56" xmlns="http://www.w3.org/2000/svg">
 <defs>
  <style>.background-layer {
            fill: #6794b7;
            }

            .raccoon {
            fill: #fff;
            fill-rule: evenodd;
            }</style>
 </defs>
 <circle class="background-layer" cx="28.015" cy="28" r="28.015"/>
 <path id="raccoon" class="raccoon" transform="translate(-945 -151)" d="M972.994,166.587c4.611,0.022,7.354.627,10,2.367,2.285-1.634,4.341-3.319,7.968-3.453-1.359.022-4.861,3.561-7.16,7.466a0.913,0.913,0,0,0,.9.835c1.01-1.642,4.461-6.331,6.165-6.873a2.138,2.138,0,0,1,2.328.027c1.349,1.412-3.431,5.9-4.75,6.84-0.191.349,0.184,1.095,0.513,0.909,2.754-1.551,6.065-4.978,5.9-7.971-0.231-1.92-2-2.658-4.165-2.514-2.881,0-6.5,2.2-7.719,3.35-2.872-1.713-6.231-1.988-9.948-2.031M992.3,187.26a10.332,10.332,0,0,0-7.681,4.17c0.391-.062,1.059,0,1.484-0.05,2.135-3.264,7.5-3.061,7.5-3.065,0.694-3.657.95-9.937-2.45-13.066-0.308-.284-0.863.189-0.821,0.561C992.435,178.606,993.4,182.578,992.3,187.26Zm-17.236,2.1c0.3-4.59,2.364-7.62,3.615-8.059a7.478,7.478,0,0,0-.577,1.9,16.7,16.7,0,0,1,12.049,2.973c-3.921,1.28-8.571,5.579-8.571,5.579s-2.125-2.33-6.552-2.166m5.395-5.388c-0.269,1.939-1.475,2.542-1.109,2.009,0.783-1.14.649-2.438-1.813-1.621a6.039,6.039,0,0,0-.991,2.553c1.555,1.933,4.767.581,5.017-1.6A1.307,1.307,0,0,0,980.42,184.2Zm-3.363,8.856c0.652-.059,5.076.053,12.916,0.031C991.013,192,974.663,191.854,977.057,193.059Zm0.782,1.675c2.251,0.049,3.454-.012,10.621-0.007C989.788,193.666,975.6,193.565,977.839,194.734Zm0.6,1.7c2.375-.049,4.107,0,9.23.012,0.085-1.079-6.261-.862-9.23-0.821m-5.4-29.041c-4.611.022-7.353,0.627-10,2.367-2.285-1.634-4.341-3.319-7.968-3.453,1.359,0.022,4.861,3.561,7.16,7.466a0.913,0.913,0,0,1-.9.835c-1.01-1.642-4.461-6.331-6.165-6.873a2.14,2.14,0,0,0-2.329.027c-1.347,1.412,3.432,5.9,4.751,6.84,0.191,0.349-.183,1.095-0.513.909-2.754-1.551-6.065-4.978-5.9-7.971,0.231-1.92,2-2.658,4.165-2.514,2.881,0,6.5,2.2,7.719,3.35,2.872-1.713,6.231-1.988,9.948-2.031M953.744,187.26a10.33,10.33,0,0,1,7.681,4.17c-0.391-.062-1.058,0-1.484-0.05-2.135-3.264-7.5-3.061-7.5-3.065-0.694-3.657-.95-9.937,2.45-13.066,0.308-.284.863,0.189,0.821,0.561C953.606,178.606,952.641,182.578,953.744,187.26Zm17.236,2.1c-0.3-4.59-2.364-7.62-3.615-8.059a7.478,7.478,0,0,1,.577,1.9,16.7,16.7,0,0,0-12.049,2.973c3.921,1.28,8.571,5.579,8.571,5.579s2.125-2.33,6.552-2.166m-5.395-5.388c0.269,1.939,1.475,2.542,1.109,2.009-0.783-1.14-.649-2.438,1.813-1.621a6.026,6.026,0,0,1,.991,2.553c-1.554,1.933-4.767.581-5.017-1.6A1.308,1.308,0,0,1,965.621,184.2Zm3.363,8.856c-0.652-.059-5.076.053-12.916,0.031C955.028,192,971.378,191.854,968.984,193.059Zm-0.782,1.675c-2.251.049-3.454-.012-10.621-0.007C956.254,193.666,970.438,193.565,968.2,194.734Zm-0.605,1.7c-2.375-.049-4.106,0-9.23.012-0.085-1.079,6.262-.862,9.23-0.821m5.385-17.555c-0.8,2.041-.962,9.212-0.988,14.282a5.641,5.641,0,0,0-1.069,3.429c-2.4,1.025-1.686,3.356.44,4.055a6.686,6.686,0,0,1-4.624-2.57c-0.054,4.857,12.456,5.489,12.4-.028-0.638,1.694-3.628,2.382-4.693,2.51,2.119-.393,3.066-3.148.574-3.921a7.718,7.718,0,0,0-1.018-3.417c0-5.339-.289-12.277-0.919-14.406Z"/>
</svg>
