<svg xmlns="http://www.w3.org/2000/svg" width="50" height="25" shape-rendering="geometricPrecision" text-rendering="geometricPrecision" image-rendering="optimizeQuality" fill-rule="evenodd" clip-rule="evenodd"><path d="M.042.033h49.966v24.934H.042V.033zm9.857 20.899v-7.905h2.886l.118-2.84H9.898V8.104c0-.394.067-.705.2-.934.135-.229.453-.335.957-.32l1.777.001.071-2.651a6.462 6.462 0 00-.675-.059 13.131 13.131 0 01-.627-.035 9.124 9.124 0 00-.661-.024c-.694-.047-1.29.028-1.788.225a3.27 3.27 0 00-1.23.828A3.477 3.477 0 007.2 6.354a4.246 4.246 0 00-.237 1.395v2.438H4.929v2.84h2.034v7.904l2.935.001h.001z" fill="#3c5a98"/></svg>