<svg xmlns="http://www.w3.org/2000/svg" width="50" height="25" shape-rendering="geometricPrecision" text-rendering="geometricPrecision" image-rendering="optimizeQuality" fill-rule="evenodd" clip-rule="evenodd"><path d="M.042.033h49.966v24.934H12.176c.369-.917.554-1.479.554-2.31 0-.683-.114-1.315-.342-1.899-.225-.584-.512-1.065-.857-1.441v-.003a16.36 16.36 0 00-1.116-1.1 16.081 16.081 0 00-1.116-.923 4.137 4.137 0 01-.86-.845c-.227-.304-.341-.613-.341-.923 0-.372.118-.723.356-1.054.238-.332.526-.648.868-.954.342-.304.681-.638 1.015-.999.335-.361.623-.843.86-1.442.238-.599.356-1.276.356-2.03 0-.753-.137-1.506-.411-2.255-.272-.749-.663-1.361-1.169-1.837a1.331 1.331 0 00-.216-.17 8.918 8.918 0 00-.193-.116.508.508 0 01-.154-.146 1.511 1.511 0 01-.164-.265l2.092.001 2.093-.992H6.658c-1.426 0-2.689.199-3.789.597C1.77 4.259.826 4.947.042 5.929V.033zm19.835 3.23h-1.983v3.968h-3.968v1.984h3.968v3.968h1.983V9.215h3.968V7.231h-3.968V3.263zm-9.419 21.704H.042v-2.674c.02-.314.359-.639.591-.908.979-1.128 2.45-1.605 3.887-1.798a12.305 12.305 0 011.658-.108c.332 0 .584.009.76.03.062.042.219.149.472.325.254.175.423.294.51.357.087.063.248.182.48.356.232.175.397.309.496.395.099.089.24.221.426.395.186.175.324.328.411.458.087.129.195.286.325.472.129.187.219.364.271.536.051.17.101.356.146.558.045.202.069.411.069.629 0 .291-.029.757-.086.977zM.042 19.864v-6.708c1.062 1.218 2.472 1.827 4.229 1.827.33 0 .691-.025 1.085-.077-.216.631-.325 1.075-.325 1.333 0 .692.325 1.462.977 2.31-2.418.071-4.407.509-5.966 1.315zm5.794-5.813a3.007 3.007 0 01-1.504-.402 3.998 3.998 0 01-1.208-1.047 7.496 7.496 0 01-.868-1.449 7.868 7.868 0 01-.55-1.613 7.091 7.091 0 01-.178-1.534c0-.992.265-1.845.797-2.558.532-.713 1.279-1.069 2.24-1.069.683 0 1.297.212 1.844.637.548.423.982.96 1.303 1.612.319.651.562 1.324.728 2.015.165.691.248 1.353.248 1.984 0 1.033-.226 1.862-.676 2.488-.449.625-1.175.938-2.176.938v-.002z" fill="#c25234"/></svg>