<svg xmlns="http://www.w3.org/2000/svg" width="50" height="25" shape-rendering="geometricPrecision" text-rendering="geometricPrecision" image-rendering="optimizeQuality" fill-rule="evenodd" clip-rule="evenodd"><path d="M.042.033h49.966v24.934H.042V.033zm12.18 13.922c-.538-.321-1.284-.321-1.892-.321H8.337v4.24h1.829c.677 0 1.542.049 2.125-.374.535-.373.838-1.105.838-1.799 0-.648-.372-1.421-.908-1.746h.001zm-.752-3.618c.444-.349.675-.97.675-1.542 0-.622-.28-1.219-.792-1.542-.537-.323-1.517-.249-2.147-.249h-.868v3.732h1.148c.654-.001 1.424.049 1.984-.399zm-.146 10.694H4.476V3.969h7.483c2.166 0 4.166 1.424 4.166 3.936 0 1.939-1.051 3.268-2.387 3.681v.05c1.982.423 3.401 1.535 3.401 4.219 0 2.483-1.639 5.175-5.815 5.175v.001z" fill="#48729e"/></svg>