<svg xmlns="http://www.w3.org/2000/svg" width="50" height="25" shape-rendering="geometricPrecision" text-rendering="geometricPrecision" image-rendering="optimizeQuality" fill-rule="evenodd" clip-rule="evenodd"><path d="M.042.033h49.966v24.934H.042V.033zm11.083 4.729c.004 1.178-.988 2.123-2.218 2.115-1.226-.007-2.211-.961-2.205-2.134.006-1.132 1-2.083 2.194-2.1 1.208-.016 2.228.952 2.228 2.119h.001zM7.298 15.159c-.498-.217-.997-.372-1.426-.634-1.423-.87-2.057-2.813-1.532-4.559.456-1.468 1.555-2.331 3.064-2.354 1.041-.017 2.082-.001 3.126-.002 1.702-.004 2.806-1.032 2.885-2.697.023-.544-.012-1.088.017-1.629.023-.418.297-.651.718-.663.425-.011.744.229.741.631-.008.969.042 1.965-.17 2.901-.416 1.841-1.788 2.831-4.09 3.134v.648c0 3.895.001 7.791-.002 11.685 0 .743-.26.998-.989.993-.673-.005-.95-.261-.953-.916-.006-1.554-.002-3.109-.002-4.662v-.446c-.033-.015-.065-.027-.097-.042-.08.148-.168.293-.24.446-.766 1.572-1.526 3.145-2.294 4.717-.387.794-1.206 1.14-2.073.88-.416-.123-.397-.407-.24-.713.43-.836.87-1.668 1.306-2.502.554-1.068 1.744-3.257 2.253-4.215l-.002-.001zm1.25-5.781c-1.278.107-1.903.028-2.366.684-.557.788-.402 1.691.135 2.492.411.613 1.133.741 2.244.795.02-1.71-.013-2.098-.013-3.971z" fill="#d83933"/></svg>