<svg xmlns="http://www.w3.org/2000/svg" width="10" height="18"><path fill="#A2AAB2" paint-order="stroke fill markers" fill-rule="evenodd" d="M1.753 4.595c.22-.074.485.122.591.437.107.314.016.629-.204.702-.22.073-.485-.122-.592-.437-.107-.315-.015-.629.205-.702zm.82.058c-.119-.35-.017-.7.227-.78.244-.082.539.135.657.485.12.349.017.698-.227.78-.244.081-.538-.136-.657-.485zm1.173-.54c-.132-.389-.019-.777.252-.868.272-.09.599.151.73.54.133.388.02.776-.252.867-.271.09-.598-.151-.73-.54zM4.91 3.64c-.133-.388-.02-.776.252-.867.271-.09.598.15.73.54.132.387.02.776-.252.866-.272.09-.599-.15-.73-.54zm1.653-.364c-.176-.518-.025-1.036.337-1.156.362-.121.798.2.973.718.177.518.026 1.035-.336 1.156-.362.12-.798-.2-.974-.718zm2.042 1.708C9 6.11 7.51 6.815 7.51 6.815c-1.49.808-2.329 2.427-2.329 2.427-.572 1.685 1.27 3.483 1.27 3.483 2.06 1.408 1.278 2.463 1.278 2.463-.57 1.478-2.278.986-2.278.986-1.709-.317-1.709-2.886-1.709-2.886.176-.563-.306-1.618-.306-1.618C2.166 9.277 1.64 7.73 1.64 7.73 1.333 5.652 4.18 5.3 4.18 5.3c.79 0 1.578-.421 1.578-.421 2.19-1.302 2.847.106 2.847.106z"/></svg>