<svg xmlns="http://www.w3.org/2000/svg" width="58" height="58" shape-rendering="geometricPrecision" text-rendering="geometricPrecision" image-rendering="optimizeQuality" fill-rule="evenodd" clip-rule="evenodd"><path fill="#6b9ad0" d="M.239.328H57.76v57.521H.239z"/><path d="M37.625 21.489c0 1.466-.208 2.766-.633 3.891-.425 1.134-1.017 2.092-1.775 2.867a7.775 7.775 0 01-2.725 1.808c-1.058.425-2.234.659-3.517.709l-.15 6.516c0 .209-.1.367-.292.475-.2.109-.55.159-1.058.159-.242 0-.458-.009-.642-.034a1.2 1.2 0 01-.424-.125.526.526 0 01-.309-.475l-.125-7.325c0-.3.033-.541.108-.733.076-.2.184-.358.317-.475.142-.125.308-.208.517-.258.2-.05.441-.075.716-.075h.642c1.167 0 2.167-.184 2.975-.55.817-.367 1.475-.85 1.967-1.459.5-.608.858-1.325 1.075-2.133a9.575 9.575 0 00.333-2.558c0-1.009-.142-1.934-.417-2.767a5.732 5.732 0 00-1.258-2.167c-.558-.616-1.266-1.083-2.117-1.416-.858-.334-1.866-.5-3.041-.5-.992 0-1.867.108-2.625.325a12.33 12.33 0 00-1.958.725c-.559.266-1.009.508-1.359.725-.35.216-.608.324-.767.324a.724.724 0 01-.308-.058.514.514 0 01-.217-.225c-.058-.1-.1-.242-.133-.408a3.414 3.414 0 01-.05-.625c0-.292.017-.525.058-.692a.975.975 0 01.309-.483c.166-.158.483-.367.966-.625.475-.258 1.05-.5 1.725-.734.667-.224 1.4-.416 2.192-.566.8-.158 1.617-.234 2.45-.234 1.642 0 3.067.234 4.259.709 1.199.475 2.191 1.125 2.966 1.95a7.964 7.964 0 011.75 2.917c.383 1.116.575 2.316.575 3.6zm-7.95 22.025c0 .458-.025.833-.083 1.141-.059.3-.167.542-.333.717a1.35 1.35 0 01-.65.383c-.276.076-.609.109-1.017.109-.434 0-.775-.033-1.05-.109a1.34 1.34 0 01-.65-.383c-.167-.175-.275-.417-.334-.717a6.303 6.303 0 01-.083-1.141c0-.459.025-.842.083-1.15.059-.309.167-.55.334-.725.166-.167.383-.292.65-.367.275-.075.616-.108 1.05-.108.408 0 .741.033 1.017.108.266.075.483.2.65.367.166.175.274.416.333.725.058.308.083.691.083 1.15z" fill="white" fill-rule="nonzero"/></svg>